<svg width="32" height="32" viewBox="0 0 32 32" fill="none" xmlns="http://www.w3.org/2000/svg">
<path d="M27.328 8.14132L16.6973 2.80799C16.5124 2.71458 16.3082 2.66569 16.101 2.66523C15.8938 2.66476 15.6894 2.71274 15.504 2.80532L4.80135 8.13866C4.40535 8.33865 4.13201 8.72132 4.07601 9.16132C4.05868 9.29065 2.54935 22.1493 15.464 29.172C15.6625 29.2803 15.8855 29.336 16.1116 29.3339C16.3377 29.3318 16.5595 29.2719 16.756 29.16C29.1654 22.148 28.108 9.72932 28.0573 9.20399C28.0355 8.97965 27.9572 8.76451 27.8296 8.57868C27.7021 8.39284 27.5295 8.24237 27.328 8.14132Z" fill="#303493"/>
</svg>
