<svg width="155" height="24" viewBox="0 0 155 24" fill="none" xmlns="http://www.w3.org/2000/svg">
<path d="M31.9197 20.6956H46.0241V18.9025H34.6663L46.0983 4.33351V2.98868H32.2908V4.78178H43.2774L31.9197 19.3508V20.6956ZM56.6395 20.9944C61.9846 20.9944 65.6217 16.7358 65.6217 11.8048C65.6217 6.87372 62.0585 2.61511 56.6395 2.61511C51.2947 2.61511 47.6572 6.87372 47.6572 11.8048C47.6572 16.8105 51.2947 20.9944 56.6395 20.9944ZM56.7137 19.2013C52.7051 19.2013 49.7358 15.914 49.7358 11.8795C49.7358 7.7703 52.6309 4.55764 56.6395 4.55764C60.648 4.55764 63.6175 7.845 63.6175 11.8795C63.543 15.914 60.7226 19.2013 56.7137 19.2013ZM76.7567 20.9944C82.1018 20.9944 85.739 16.7358 85.739 11.8048C85.739 6.87372 82.1758 2.61511 76.7567 2.61511C71.4122 2.61511 67.7745 6.87372 67.7745 11.8048C67.7745 16.8105 71.4122 20.9944 76.7567 20.9944ZM76.8312 19.2013C72.8227 19.2013 69.8532 15.914 69.8532 11.8795C69.8532 7.7703 72.7482 4.55764 76.7567 4.55764C80.7653 4.55764 83.7347 7.845 83.7347 11.8795C83.7347 15.914 80.8398 19.2013 76.8312 19.2013ZM88.486 20.6956H94.5728C100.14 20.6956 103.926 16.8105 103.926 11.8048C103.926 6.79902 100.14 2.98868 94.5728 2.98868H88.486V20.6956ZM90.4903 18.8278V4.85649H94.6473C99.1012 4.85649 101.922 7.9197 101.922 11.8795C101.922 15.8393 99.1012 18.9025 94.6473 18.9025H90.4903V18.8278ZM107.787 20.6956H111.647V15.391H114.616C118.551 15.391 121.742 13.299 121.742 9.18984C121.742 5.5289 119.218 2.98868 114.987 2.98868H107.787V20.6956ZM111.647 11.9542V6.50016H114.616C116.546 6.50016 117.734 7.47144 117.734 9.18984C117.734 10.7588 116.62 11.9542 114.691 11.9542H111.647ZM121.074 20.6956H125.009L126.642 16.7358H134.066L135.698 20.6956H139.782L132.21 2.83925H128.647L121.074 20.6956ZM127.978 13.299L130.354 7.54614L132.729 13.299H127.978ZM144.384 20.6956H148.244V13.5979L155 2.98868H150.62L146.314 10.0864L142.157 2.98868H137.629L144.384 13.7473V20.6956Z" fill="#303493"/>
<path fill-rule="evenodd" clip-rule="evenodd" d="M1.93008 0H9.9473V2.9885H5.2706C4.97366 2.9885 4.75096 3.21264 4.75096 3.51149V6.12642C4.75096 6.42528 4.97366 6.64944 5.2706 6.64944H13.5848L4.52825 17.7069C4.45402 17.7816 4.45402 17.9311 4.45402 18.0058V20.1724C4.45402 20.4713 4.67673 20.6954 4.97366 20.6954H9.9473V23.6839H1.93008C0.890803 23.6839 0 22.7873 0 21.7414V1.94253C0 0.89655 0.890803 0 1.93008 0ZM13.4363 2.9885V0H21.4536C22.4928 0 23.3836 0.89655 23.3836 1.94253V21.7414C23.3836 22.7873 22.4928 23.6839 21.4536 23.6839H13.4363V20.6954H18.4099C18.7069 20.6954 18.9296 20.4713 18.9296 20.1724V17.5574C18.9296 17.2586 18.7069 17.0345 18.4099 17.0345H9.79886L18.7811 5.97701C18.8553 5.9023 18.9296 5.75287 18.9296 5.67816V3.51149C18.9296 3.21264 18.7069 2.9885 18.4099 2.9885H13.4363Z" fill="#303493"/>
</svg>
