<svg width="61" height="61" viewBox="0 0 61 61" fill="none" xmlns="http://www.w3.org/2000/svg">
<path fill-rule="evenodd" clip-rule="evenodd" d="M30.5163 0.863403C38.5296 0.863403 46.0632 3.98399 51.7295 9.65012C57.3957 15.3165 60.5163 22.8501 60.5163 30.8634C60.5163 38.8767 57.3957 46.4103 51.7295 52.0766C46.0632 57.7428 38.5296 60.8634 30.5163 60.8634C22.5029 60.8634 14.9693 57.7428 9.30302 52.0766C3.63677 46.4103 0.516296 38.8767 0.516296 30.8634C0.516296 22.8501 3.63677 15.3164 9.30302 9.65012C14.9691 3.98399 22.5029 0.863403 30.5163 0.863403ZM4.03192 30.8634C4.03192 45.467 15.9127 57.3478 30.5163 57.3478C45.1199 57.3478 57.0007 45.467 57.0007 30.8634C57.0007 16.2598 45.1199 4.37903 30.5163 4.37903C15.9127 4.37903 4.03192 16.2598 4.03192 30.8634Z" fill="#148927"/>
<path d="M46.7966 19.4116C46.1032 18.6807 44.9787 18.6807 44.2853 19.4117L28.6034 35.9438L20.3483 27.2412C19.6549 26.5102 18.5305 26.5102 17.8369 27.2412C17.1434 27.9722 17.1434 29.1577 17.8369 29.8888L27.3476 39.9151C27.6944 40.2807 28.1489 40.4634 28.6033 40.4634C29.0577 40.4634 29.5123 40.2806 29.8589 39.9151L46.7966 22.0591C47.4902 21.3281 47.4902 20.1427 46.7966 19.4116Z" fill="#148927"/>
</svg>
