<svg width="49" height="48" viewBox="0 0 49 48" fill="none" xmlns="http://www.w3.org/2000/svg">
<path d="M24.5 0C11.2665 0 0.500061 10.7664 0.500061 24.0001C0.500061 37.2337 11.2665 48 24.5 48C37.7335 48 48.4999 37.2336 48.4999 24.0001C48.4999 10.7665 37.7337 0 24.5 0ZM24.5 44.4851C13.2046 44.4851 4.01501 35.2955 4.01501 24.0001C4.01501 12.7047 13.2046 3.51506 24.5 3.51506C35.7954 3.51506 44.985 12.7047 44.985 24.0001C44.985 35.2955 35.7955 44.4851 24.5 44.4851Z" fill="#00AD27"/>
<path d="M34.981 28.4633C34.2443 27.8314 33.1348 27.9162 32.5029 28.6531C30.4961 30.9926 27.5791 32.3345 24.4999 32.3345C21.421 32.3345 18.504 30.9927 16.4972 28.6532C15.8652 27.9165 14.7558 27.8316 14.0191 28.4635C13.2823 29.0955 13.1974 30.205 13.8294 30.9417C16.5047 34.0606 20.3941 35.8495 24.5001 35.8495C28.6061 35.8495 32.4955 34.0606 35.1708 30.9414C35.8027 30.2048 35.7178 29.0952 34.981 28.4633Z" fill="#00AD27"/>
<path d="M14.7433 21.2358C15.7138 21.2358 16.5007 20.4489 16.5007 19.4783C16.5007 18.9149 16.9592 18.4564 17.5226 18.4564C18.0861 18.4564 18.5446 18.9149 18.5446 19.4783C18.5446 20.4489 19.3314 21.2358 20.302 21.2358C21.2726 21.2358 22.0595 20.4489 22.0595 19.4783C22.0595 16.9767 20.0242 14.9415 17.5226 14.9415C15.0211 14.9415 12.9858 16.9767 12.9858 19.4783C12.9858 20.449 13.7727 21.2358 14.7433 21.2358Z" fill="#00AD27"/>
<path d="M31.4775 14.9416C28.9759 14.9416 26.9406 16.9769 26.9406 19.4785C26.9406 20.449 27.7275 21.2359 28.6981 21.2359C29.6687 21.2359 30.4556 20.449 30.4556 19.4785C30.4556 18.915 30.914 18.4565 31.4775 18.4565C32.0409 18.4565 32.4994 18.915 32.4994 19.4785C32.4994 20.449 33.2863 21.2359 34.2569 21.2359C35.2275 21.2359 36.0143 20.449 36.0143 19.4785C36.0143 16.9767 33.9791 14.9416 31.4775 14.9416Z" fill="#00AD27"/>
</svg>
