<svg width="49" height="48" viewBox="0 0 49 48" fill="none" xmlns="http://www.w3.org/2000/svg">
<path fill-rule="evenodd" clip-rule="evenodd" d="M24.5 0C30.9106 0 36.9375 2.49647 41.4705 7.02938C46.0035 11.5625 48.5 17.5894 48.5 24C48.5 30.4106 46.0035 36.4375 41.4705 40.9705C36.9375 45.5035 30.9106 48 24.5 48C18.0893 48 12.0624 45.5035 7.52938 40.9705C2.99637 36.4375 0.5 30.4106 0.5 24C0.5 17.5894 2.99637 11.5624 7.52938 7.02938C12.0623 2.49647 18.0893 0 24.5 0ZM3.3125 24C3.3125 35.6828 12.8172 45.1875 24.5 45.1875C36.1828 45.1875 45.6875 35.6828 45.6875 24C45.6875 12.3172 36.1828 2.8125 24.5 2.8125C12.8172 2.8125 3.3125 12.3172 3.3125 24Z" fill="#00AD27"/>
<path d="M37.5243 14.8385C36.9695 14.2538 36.07 14.2538 35.5152 14.8386L22.9697 28.0643L16.3657 21.1023C15.8109 20.5175 14.9113 20.5175 14.3565 21.1023C13.8017 21.6871 13.8017 22.6354 14.3565 23.2203L21.9651 31.2414C22.2425 31.5338 22.6061 31.68 22.9696 31.68C23.3331 31.68 23.6968 31.5337 23.9741 31.2414L37.5243 16.9566C38.0791 16.3718 38.0791 15.4234 37.5243 14.8385Z" fill="#00AD27"/>
</svg>
