<svg width="49" height="48" viewBox="0 0 49 48" fill="none" xmlns="http://www.w3.org/2000/svg">
<path d="M41.492 12.212L25.546 4.21201C25.2686 4.0719 24.9623 3.99856 24.6515 3.99787C24.3407 3.99717 24.0341 4.06914 23.756 4.20801L7.70202 12.208C7.10802 12.508 6.69802 13.082 6.61402 13.742C6.58802 13.936 4.32402 33.224 23.696 43.758C23.9938 43.9204 24.3282 44.004 24.6674 44.0009C25.0065 43.9977 25.3393 43.9079 25.634 43.74C44.248 33.222 42.662 14.594 42.586 13.806C42.5533 13.4695 42.4357 13.1468 42.2444 12.868C42.0531 12.5893 41.7942 12.3636 41.492 12.212Z" fill="#00AD27"/>
</svg>
