<svg width="49" height="48" viewBox="0 0 49 48" fill="none" xmlns="http://www.w3.org/2000/svg">
<path d="M24.4999 0C11.2664 0 0.5 10.7664 0.5 24.0001C0.5 37.2337 11.2664 48 24.4999 48C37.7335 48 48.4999 37.2336 48.4999 24.0001C48.4999 10.7665 37.7336 0 24.4999 0ZM24.4999 44.4851C13.2045 44.4851 4.01495 35.2955 4.01495 24.0001C4.01495 12.7047 13.2045 3.51506 24.4999 3.51506C35.7953 3.51506 44.9849 12.7047 44.9849 24.0001C44.9849 35.2955 35.7955 44.4851 24.4999 44.4851Z" fill="#00AD27"/>
<path d="M34.981 28.4632C34.2443 27.8314 33.1347 27.9162 32.5029 28.6531C30.4961 30.9926 27.5791 32.3345 24.4999 32.3345C21.4209 32.3345 18.504 30.9927 16.4972 28.6532C15.8652 27.9164 14.7558 27.8316 14.019 28.4635C13.2823 29.0955 13.1974 30.205 13.8293 30.9416C16.5047 34.0606 20.3941 35.8494 24.5 35.8494C28.6061 35.8494 32.4955 34.0606 35.1708 30.9414C35.8027 30.2048 35.7177 29.0952 34.981 28.4632Z" fill="#00AD27"/>
<path d="M14.7431 21.2358C15.7137 21.2358 16.5005 20.449 16.5005 19.4784C16.5005 18.9149 16.959 18.4564 17.5225 18.4564C18.0859 18.4564 18.5444 18.9149 18.5444 19.4784C18.5444 20.449 19.3312 21.2358 20.3018 21.2358C21.2724 21.2358 22.0593 20.449 22.0593 19.4784C22.0593 16.9768 20.024 14.9415 17.5225 14.9415C15.0209 14.9415 12.9856 16.9768 12.9856 19.4784C12.9856 20.4491 13.7725 21.2358 14.7431 21.2358Z" fill="#00AD27"/>
<path d="M31.4775 14.9416C28.9759 14.9416 26.9407 16.9768 26.9407 19.4784C26.9407 20.449 27.7276 21.2359 28.6981 21.2359C29.6687 21.2359 30.4556 20.449 30.4556 19.4784C30.4556 18.915 30.9141 18.4565 31.4775 18.4565C32.041 18.4565 32.4994 18.915 32.4994 19.4784C32.4994 20.449 33.2863 21.2359 34.2569 21.2359C35.2275 21.2359 36.0144 20.449 36.0144 19.4784C36.0144 16.9767 33.9791 14.9416 31.4775 14.9416Z" fill="#00AD27"/>
</svg>
